<svg xmlns="http://www.w3.org/2000/svg" xmlns:xlink="http://www.w3.org/1999/xlink" width="152.308" height="25.24" viewBox="0 0 152.308 25.24">
  <defs>
    <linearGradient id="linear-gradient" x1="0.5" x2="0.5" y2="1" gradientUnits="objectBoundingBox">
      <stop offset="0" stop-color="#fff9b1"/>
      <stop offset="0.494" stop-color="#e6d400"/>
      <stop offset="1" stop-color="#c45601"/>
    </linearGradient>
  </defs>
  <path id="giftList_text_01" d="M-75.036-14.125q6.419.338,12.371,1.014l-.286,3.145q-6.653-.624-12.605-1.118Zm15.62,5.172L-59.1-5.7q-2.651,0-5.25.078A18.721,18.721,0,0,0-64.9-3.469a2.032,2.032,0,0,0,.26,1.2,1.174,1.174,0,0,0,1.066.442A19.556,19.556,0,0,0-58.9-3.157l.6,3.249a22.81,22.81,0,0,1-4.964,1.325h-.832A4.175,4.175,0,0,1-67.136.377a4.694,4.694,0,0,1-1.092-3.327A13.232,13.232,0,0,1-67.889-5.5q-2.105.1-4.184.26a45.849,45.849,0,0,0-1.455,6.653L-76.96.585a41.322,41.322,0,0,1,1.118-5.51q-1.689.156-3.353.338l-.312-3.249A170.6,170.6,0,0,1-59.417-8.953Zm-9.642-12.371a12.179,12.179,0,0,0,1.4,2.547q2.157-.234,4.444-.312a10.311,10.311,0,0,1,4.132.676,3.29,3.29,0,0,1,1.611,2.859,12.239,12.239,0,0,1-1.325,4.366l-3.249-.39a12.157,12.157,0,0,0,1.325-3.249q0-1.429-3.3-1.429a47.844,47.844,0,0,0-12.865,2.625,25.861,25.861,0,0,0,1.04,2.443l-3.067,1.429a32.038,32.038,0,0,1-2.235-6.809l3.067-1.222a12.452,12.452,0,0,0,.312,1.273,39.626,39.626,0,0,1,6.16-1.689,12.87,12.87,0,0,1-.806-1.715Zm15.542,4.444q5.276.286,10.318.7a35.156,35.156,0,0,1-.78-4.444l3.041-.312a34.956,34.956,0,0,0,1.222,5.042q3.3.312,6.5.65l-.208,3.041q-2.677-.234-5.224-.442.676,1.923,1.507,3.924l.052.1q1.04-1.118,2.053-2.157L-32.8-8.641q-1.4,1.533-2.755,3.067,1.507,2.755,3.769,6.056L-34.83,2.119a37.549,37.549,0,0,1-3.249-4.86q-1.689,1.9-3.353,3.846l-2.339-2.131q2.131-2.521,4.158-4.808-1.481-3.431-2.677-7.121-3.535-.286-6.887-.572-.364,1.637-.65,3.3a11.364,11.364,0,0,1,1.871-.156,4.814,4.814,0,0,1,3.3.962,4.324,4.324,0,0,1,1.3,3.223v.988A9.622,9.622,0,0,1-44.888-.22l-3.145-.494A9.7,9.7,0,0,0-46.5-5.21,3,3,0,0,0-47.175-7.5a2.8,2.8,0,0,0-1.689-.442q-.7.13-1.351.312-.52,3.976-.65,8.109L-54.115.2a64.09,64.09,0,0,1,1.689-13.982q-.78-.078-1.507-.13Zm16.841-3.846A12.939,12.939,0,0,1-32.8-17.374l-1.923,1.923A39.316,39.316,0,0,0-38.6-18.7ZM-16.014-.168l-4.34.182-1.273-18.973,4.47-.286Zm10.656-16.3q3.145.286,6.082.806L.412-12.1q-3.327-.442-6.29-.806ZM.2-8.433,1.529-5.5q-2.7,1.715-5.978,3.665L-5.982-4.9A66.6,66.6,0,0,1,.2-8.433ZM4.18-20.207l3.249.7q-.494.988-.936,1.975a24.059,24.059,0,0,1,6.575-1.17,3.837,3.837,0,0,1,2.573.78A4.866,4.866,0,0,1,16.655-14.7a13.614,13.614,0,0,1-1.507,4.938l-3.457-.52a13.969,13.969,0,0,0,1.429-3.587q0-1.481-.962-1.481a19.24,19.24,0,0,0-7.381,2.339q-.65,1.975-1.118,4.054l-3.249-.7A43.232,43.232,0,0,1,4.18-20.207ZM7.013-12.8l3.457.806Q9.17-8.667,8.027-5.288a18.864,18.864,0,0,0,8.525,2.625L15.746.689A16,16,0,0,1,6.909-1.936q-.65,2-1.222,3.95L2.257,1.209Q4.544-6.666,7.013-12.8Zm20.61-6.913,4.574.156q-.1-.884-.208-1.689l3.249-.286L35.5-19.4q3.561.156,6.939.39l-.182,2.443q-3.327-.182-6.445-.338l.1.884q1.3.052,2.417.156a5.348,5.348,0,0,1,3.223,1.377,4.482,4.482,0,0,1,.884,3.223v.6a5.5,5.5,0,0,1-.572,2.261A4.5,4.5,0,0,1,38.3-6.276q-.546.078-1.118.13.052.494.13.962,2.781-.1,5.536-.1l.208,2.521q-2.833,0-5.458.1.156,1.144.286,2.235L35.5-.194l.26,1.2a19.389,19.389,0,0,1-6.5,1.222h-1.04A9.737,9.737,0,0,1,23.2,1a4.777,4.777,0,0,1-2.287-4.262,19.229,19.229,0,0,1,.936-5.484l3.249.7a11.545,11.545,0,0,0-.936,4.158,2.753,2.753,0,0,0,1.17,2.469,6.382,6.382,0,0,0,3.613.78,18.635,18.635,0,0,0,5.51-.962q-.078-.494-.13-.936-3.665.208-7.017.6l-.182-2.547q3.457-.364,6.887-.546-.078-.494-.13-.988H32.613a8.342,8.342,0,0,1-3.924-.754q-1.767-.936-1.767-4a15.156,15.156,0,0,1,1.715-5.38l2.183.572q.936-.234,1.819-.364-.052-.572-.13-1.144-2.7-.156-5.276-.286Zm8.6,6.056.208,1.611q.858.078,1.663.156l-.208,2.235q-.624-.052-1.17-.1.078.624.156,1.222a.428.428,0,0,1,.13-.026,2.742,2.742,0,0,0,1.923-.91,3,3,0,0,0,.468-1.611,3.3,3.3,0,0,0-.26-1.585,2.993,2.993,0,0,0-1.949-.91Q36.694-13.631,36.226-13.657ZM33.6-8.329q-.1-.884-.234-1.715-1.741-.156-3.379-.286a1.788,1.788,0,0,0,.728,1.4A5.176,5.176,0,0,0,33.6-8.329Zm-.52-4q-.078-.65-.156-1.273a11.922,11.922,0,0,0-2.573.65q-.078.234-.156.442Q31.677-12.436,33.081-12.332Zm-11.15-5.952a15.658,15.658,0,0,1,4.47,1.611L25.6-13.709a20.317,20.317,0,0,0-4.47-1.741Zm-.806,4.86a14.118,14.118,0,0,1,4.262,1.637l-.806,2.833a19.594,19.594,0,0,0-4.262-1.715ZM59.2-19.713a15.733,15.733,0,0,0,1.533,3.95l-2.651,1.222A17.169,17.169,0,0,1,56.55-18.6Zm8.733-.6,1.923,1.819q-1.793,1.689-3.639,3.561l-1.689-1.507q.078.754.13,1.507a5.281,5.281,0,0,1,.962.182,3.748,3.748,0,0,1,2.157,1.377q1.014.988,1.066,4.028,0,4.184-1.118,6.056a5.707,5.707,0,0,1-.442.624A15.05,15.05,0,0,1,69.649.2L67.621,2.223Q66.322.663,64.762-.9a7.765,7.765,0,0,1-2.417.364,10.824,10.824,0,0,1-1.767-.13Q59.149.871,57.771,2.431L55.744.585q1.092-1.222,2.105-2.339-.182-.156-.338-.312a6.714,6.714,0,0,1-1.455-4.652,17.462,17.462,0,0,1,1.819-7.719l1.248.286a11.8,11.8,0,0,1,2.469-.78q-.338-3.275-.572-5.9l3.067-.312q.182,2.053.39,4.262Q66.27-18.8,67.933-20.31Zm-6,8a10.46,10.46,0,0,0-2.417.91q-.052.156-.078.26a36.513,36.513,0,0,1,4.34.468l-.208,2.339A35.56,35.56,0,0,0,58.915-8.8a9.927,9.927,0,0,0-.1,1.4,36.514,36.514,0,0,1,4.34.468l-.182,2.339A39.208,39.208,0,0,0,59.019-5a2.112,2.112,0,0,0,.442.884,1.576,1.576,0,0,0,.364.312l.078-.078.312.286a4.429,4.429,0,0,0,1.819.338,3.492,3.492,0,0,0,3.2-1.351,8.168,8.168,0,0,0,.884-4.236q0-2.859-.962-3.067a4.505,4.505,0,0,0-1.559-.338Q62.605-12.306,61.93-12.306Zm-9.642-9.122L54.341-19.5q-.39.364-.754.676a15.012,15.012,0,0,1,3.171,1.559l-.7,2.521A27.708,27.708,0,0,0,51.4-16.828q-1.377,1.248-2.7,2.5,3.535.052,7.043.312L55.536-11.5q-1.273-.078-2.521-.13-.1.936-.182,1.9,1.222-.026,2.417-.026l.286,2.625q-1.533,0-2.937.052-.1,1.4-.156,2.807A24.958,24.958,0,0,1,54.73-6.094l1.118,1.715q-1.4,1.17-2.963,2.5,1.17-.052,2.365-.052L55.432.585a64.81,64.81,0,0,0-8.914.624L46.31-1.338q1.17-.156,2.391-.286-1.2-1.351-2.807-2.859l1.533-1.429q.91.884,2.027,2.053.052-1.585.156-3.093-1.507.1-2.885.234l-.312-2.625q1.741-.156,3.4-.26.078-1.066.208-2.131-1.274-.052-2.5-.052l.13-1.559-.13.13L45.4-15.035Q48.961-18.6,52.287-21.428Z" transform="translate(81.723 22.098)" stroke="rgba(0,0,0,0)" stroke-width="1" fill="url(#linear-gradient)"/>
</svg>
